<svg width="36" height="31" viewBox="0 0 36 31" fill="none" xmlns="http://www.w3.org/2000/svg">
<path d="M32.696 5.99617C29.1453 3.92348 24.6048 5.15511 22.5528 8.74573L17.3803 17.8065C15.8836 20.4229 17.8104 21.3372 19.9589 22.6398L24.9361 25.5447C26.6215 26.5278 28.7744 25.9442 29.7466 24.2421L35.064 14.9305C36.8503 11.8015 35.7903 7.8026 32.696 5.99617Z" fill="#EA4335"/>
<path d="M26.8434 9.74662L21.8662 6.84178C19.1186 5.29947 17.5627 5.19739 16.4346 7.01044L9.09392 19.866C7.04418 23.4544 8.26437 28.0436 11.8129 30.1119C14.9072 31.9183 18.8619 30.8464 20.6482 27.7174L28.1294 14.6132C29.106 12.909 28.5288 10.7297 26.8434 9.74662Z" fill="#FBBC04"/>
<path d="M27.8012 3.13821L24.3052 1.09659C20.4385 -1.1603 15.4942 0.177853 13.2623 4.088L6.60625 15.7452C5.62309 17.4651 6.20684 19.6664 7.90765 20.6584L11.8227 22.9442C13.7561 24.0738 16.2271 23.4035 17.3442 21.4484L24.9483 8.13133C26.524 5.3729 30.0111 4.42754 32.7389 6.02089L27.8012 3.13821Z" fill="#34A853"/>
<path d="M14.2078 7.42337L10.4288 5.22197C8.74336 4.24111 6.59054 4.82252 5.61836 6.5224L1.08443 14.4448C-1.14743 18.3438 0.175882 23.3325 4.04267 25.5828L6.91972 27.2582L10.409 29.2909L11.9233 30.1719C9.23496 28.3523 8.38128 24.7062 10.025 21.8346L11.1991 19.7841L15.4982 12.2722C16.4682 10.5768 15.891 8.40424 14.2078 7.42337Z" fill="#4285F4"/>
</svg>
