<svg width="36" height="27" viewBox="0 0 36 27" fill="none" xmlns="http://www.w3.org/2000/svg">
<g clip-path="url(#clip0_102_141)">
<path d="M34.4827 10.7512C34.4821 10.4863 34.4032 10.2276 34.2559 10.0077C34.1087 9.78783 33.8996 9.61659 33.6553 9.51565C33.4109 9.41471 33.1422 9.3886 32.883 9.44061C32.6238 9.49263 32.3858 9.62043 32.1991 9.80789C32.0124 9.99534 31.8854 10.234 31.834 10.4938C31.7827 10.7536 31.8093 11.0227 31.9106 11.2673C32.0119 11.5119 32.1833 11.721 32.4031 11.868C32.6229 12.0151 32.8813 12.0936 33.1456 12.0936C33.3215 12.094 33.4958 12.0595 33.6584 11.9921C33.821 11.9248 33.9687 11.8259 34.0929 11.7011C34.2172 11.5763 34.3156 11.4281 34.3825 11.2651C34.4494 11.1021 34.4835 10.9274 34.4827 10.7512ZM28.2149 2.958L26.1847 23.4201C26.64 23.4753 27.3448 23.4201 27.4695 22.6995C27.6639 21.6011 29.3403 4.46897 29.3403 4.46897C29.3403 4.46897 29.6477 3.66118 28.2004 2.958H28.2149ZM32.9049 13.5842C32.9049 13.5842 31.7447 13.9242 30.2365 14.1828L29.2939 23.2806C29.2939 23.2806 29.1663 25.2188 27.7451 25.2188H26.0222L26.0019 25.4163C26.0019 25.4163 25.7873 26.7501 24.6272 26.9244C23.467 27.0988 1.00928 26.9244 1.00928 26.9244C1.00928 26.9244 0.0608496 26.7501 0.0202441 25.8609C-0.0203613 24.9718 0.0202441 6.63955 0.0202441 6.63955C0.130183 6.27873 0.343599 5.95826 0.633938 5.71802C0.924277 5.47778 1.27872 5.32837 1.65316 5.28839C2.16943 5.22156 6.06176 4.57939 10.6444 3.81519L12.1758 0.90946C12.3224 0.644797 12.5353 0.422947 12.7936 0.265743C13.0518 0.108539 13.3464 0.0213981 13.6484 0.0128951C13.9504 0.00439214 14.2495 0.0748203 14.5161 0.217249C14.7827 0.359678 15.0077 0.569199 15.169 0.825194C14.8851 0.516496 14.4959 0.325711 14.0784 0.29054H14.0349H13.945H13.9218C13.6119 0.289799 13.3076 0.373841 13.0418 0.533604C12.776 0.693367 12.5588 0.922788 12.4136 1.19713L1.13109 22.6646C0.938823 23.0627 0.908397 23.52 1.04623 23.9402C1.18407 24.3603 1.47939 24.7104 1.86991 24.9165C2.26043 25.1227 2.71561 25.1689 3.13944 25.0453C3.56328 24.9217 3.92263 24.638 4.1417 24.2541L12.2628 8.80141V21.5634C12.2643 22.0096 12.4421 22.4371 12.7574 22.7523C13.0726 23.0676 13.4996 23.245 13.945 23.2458C14.9921 23.2458 15.6853 21.9353 15.7433 21.8162L20.2099 13.1832V20.651C20.2099 21.0972 20.3868 21.5251 20.7017 21.8406C21.0167 22.1561 21.4438 22.3334 21.8892 22.3334C22.3346 22.3334 22.7617 22.1561 23.0767 21.8406C23.3916 21.5251 23.5685 21.0972 23.5685 20.651V6.26471C23.5704 5.8728 23.4354 5.49258 23.1869 5.18989C22.9384 4.88721 22.592 4.68112 22.2078 4.60731C21.8236 4.5335 21.4258 4.59662 21.0831 4.78575C20.7405 4.97487 20.4747 5.27809 20.3317 5.64289L20.3056 5.68357L15.9231 14.1596L14.847 16.426L15.6243 13.6104V2.98124C21.4048 2.01364 26.7763 1.10705 26.7763 1.10705C26.7763 1.10705 28.1975 0.761268 28.2846 2.26934L28.2207 2.90569C28.708 2.80109 31.0051 2.403 31.1617 4.35856L30.8398 9.00772C30.8398 9.00772 31.2342 9.29829 32.9484 8.62416C32.9484 8.62416 35.3586 7.66527 35.6167 10.0596C35.6167 10.0596 36.0837 12.512 32.9049 13.5988V13.5842ZM33.891 10.7599C33.891 10.9076 33.8473 11.0519 33.7654 11.1748C33.6835 11.2976 33.5671 11.3933 33.4309 11.4498C33.2947 11.5063 33.1448 11.5211 33.0002 11.4923C32.8556 11.4635 32.7228 11.3924 32.6185 11.2879C32.5143 11.1835 32.4433 11.0504 32.4145 10.9056C32.3858 10.7607 32.4005 10.6105 32.4569 10.4741C32.5134 10.3376 32.6089 10.221 32.7315 10.139C32.8541 10.0569 32.9982 10.0131 33.1456 10.0131C33.3418 10.0131 33.5301 10.0906 33.6696 10.2287C33.8092 10.3669 33.8887 10.5546 33.891 10.7512V10.7599Z" fill="#2172B9"/>
</g>
<defs>
<clipPath id="clip0_102_141">
<rect width="35.64" height="27" fill="white"/>
</clipPath>
</defs>
</svg>
