<svg width="48" height="16" viewBox="0 0 48 16" fill="none" xmlns="http://www.w3.org/2000/svg">
<path d="M47.8256 4.43617C47.39 3.19079 46.203 2.2965 44.8087 2.2965H44.7795C43.8732 2.2965 43.0564 2.67373 42.4749 3.2793C41.8925 2.67373 41.0756 2.2965 40.1702 2.2965H40.1411C39.3444 2.2965 38.6161 2.58821 38.0567 3.07109V2.82563C38.0376 2.58117 37.8364 2.38906 37.588 2.38906H35.4493C35.1878 2.38906 34.9765 2.6003 34.9765 2.86284V14.4766C34.9765 14.7391 35.1878 14.9504 35.4493 14.9504H37.588C37.8264 14.9504 38.0225 14.7723 38.0537 14.542L38.0527 6.20462C38.0525 6.17674 38.0538 6.14886 38.0567 6.12113C38.0909 5.74892 38.3635 5.44312 38.7941 5.40488H39.1884C39.3685 5.42097 39.5204 5.48436 39.6401 5.57991C39.8262 5.72779 39.9298 5.95514 39.9298 6.20462L39.9378 14.5007C39.9378 14.7633 40.1501 14.9755 40.4106 14.9755H42.5493C42.8018 14.9755 43.007 14.7743 43.0191 14.5238L43.0181 6.19356C43.0171 5.91993 43.1439 5.67247 43.3662 5.52559C43.4758 5.45516 43.6076 5.40791 43.7595 5.39382H44.1538C44.6166 5.43406 44.8962 5.78513 44.8952 6.19356L44.9032 14.4786C44.9032 14.7411 45.1155 14.9524 45.376 14.9524H47.5147C47.7753 14.9524 47.9875 14.7411 47.9875 14.4786V5.56785C47.9875 4.96025 47.9191 4.70173 47.8256 4.43617H47.8256ZM33.3472 2.41931H32.124V0.431549C32.124 0.193133 31.9309 0 31.6924 0C31.6643 0 31.6371 0.00399213 31.611 0.00903932C30.2549 0.381248 30.5265 2.25937 28.0509 2.41931H27.8105C27.7742 2.41931 27.74 2.42433 27.7069 2.43138H27.7049L27.7069 2.43237C27.4956 2.47968 27.3367 2.66677 27.3367 2.89213V5.03077C27.3367 5.29131 27.5489 5.50355 27.8105 5.50355H29.1011L29.0991 14.5722C29.0991 14.8308 29.3083 15.04 29.5669 15.04H31.6814C31.9389 15.04 32.1482 14.8308 32.1482 14.5722L32.1491 5.50355H33.3472C33.6078 5.50355 33.82 5.29131 33.82 5.03077V2.89213C33.82 2.63158 33.6078 2.41934 33.3472 2.41934" fill="#00BAF2"/>
<path d="M25.6511 2.42019H23.5124C23.2519 2.42019 23.0406 2.63246 23.0406 2.89297V7.31518C23.0356 7.58878 22.8143 7.80809 22.5396 7.80809H21.6443C21.3667 7.80809 21.1424 7.58476 21.1424 7.30711L21.1343 2.893C21.1343 2.63246 20.922 2.42022 20.6615 2.42022H18.5229C18.2613 2.42022 18.0501 2.63246 18.0501 2.893V7.73968C18.0501 9.58057 19.3628 10.8934 21.2047 10.8934C21.2047 10.8934 22.5869 10.8934 22.6292 10.9014C22.8787 10.9296 23.0728 11.1388 23.0728 11.3963C23.0728 11.6508 22.8827 11.8591 22.6362 11.8902C22.6242 11.8922 22.6131 11.8953 22.6 11.8973L19.4725 11.9084C19.2109 11.9084 18.9997 12.1206 18.9997 12.3811V14.5188C18.9997 14.7804 19.2109 14.9916 19.4725 14.9916H22.9692C24.8121 14.9916 26.1238 13.6798 26.1238 11.838V2.893C26.1238 2.63246 25.9126 2.42022 25.6511 2.42022V2.42019ZM4.95031 6.3389V7.65873C4.95031 7.93532 4.72598 8.16068 4.44935 8.16068L3.09231 8.16168V5.51703H4.44935C4.72598 5.51703 4.95031 5.74034 4.95031 6.01799V6.3389ZM5.13842 2.41968H0.463744C0.20722 2.41968 0 2.62792 0 2.88342V4.97884C0 4.98286 0.000998034 4.98688 0.000998034 4.9909C0.000998034 5.00096 0 5.01103 0 5.02007V14.5042C0 14.7617 0.193134 14.972 0.432577 14.978H2.61143C2.87197 14.978 3.08421 14.7668 3.08421 14.5052L3.09228 11.255H5.13839C6.85051 11.255 8.04359 10.067 8.04359 8.34777V5.33094C8.04359 3.61176 6.85051 2.41971 5.13839 2.41971L5.13842 2.41968ZM13.8239 11.3598V11.6938C13.8239 11.721 13.8199 11.7471 13.8159 11.7723C13.8109 11.7958 13.8041 11.819 13.7958 11.8417C13.7294 12.0288 13.5423 12.1646 13.3199 12.1646H12.4297C12.152 12.1646 11.9257 11.9533 11.9257 11.6938V11.2904C11.9257 11.2854 11.9247 11.2803 11.9247 11.2753L11.9257 10.202V9.86595L11.9267 9.86296C11.9277 9.60441 12.152 9.39519 12.4297 9.39519H13.3199C13.5986 9.39519 13.8239 9.60543 13.8239 9.86598L13.8239 11.3598ZM13.484 2.43197H10.5164C10.2538 2.43197 10.0416 2.63115 10.0416 2.87558V3.70751C10.0416 3.71253 10.0426 3.71858 10.0426 3.72359C10.0426 3.72964 10.0416 3.73566 10.0416 3.7417V4.88146C10.0416 5.14 10.2669 5.35124 10.5446 5.35124H13.3703C13.5936 5.38646 13.7706 5.54943 13.7958 5.80392V6.07955C13.7706 6.32199 13.5956 6.49901 13.3823 6.51914H11.9831C10.1221 6.51914 8.79622 7.75548 8.79622 9.49174V11.9785C8.79622 13.7047 9.93597 14.9329 11.7839 14.9329H15.6618C16.358 14.9329 16.9223 14.4058 16.9223 13.757V5.64196C16.9223 3.67432 15.9083 2.43197 13.4839 2.43197H13.484Z" fill="#1F336B"/>
</svg>
