<svg width="48" height="48" viewBox="0 0 48 48" fill="none" xmlns="http://www.w3.org/2000/svg">
<path d="M23.9999 47.1818C36.8029 47.1818 47.1818 36.8029 47.1818 23.9999C47.1818 11.197 36.8029 0.818115 23.9999 0.818115C11.197 0.818115 0.818115 11.197 0.818115 23.9999C0.818115 36.8029 11.197 47.1818 23.9999 47.1818Z" fill="#5F259F"/>
<path d="M34.4317 18.2664C34.4317 17.3776 33.6539 16.6182 32.7483 16.6182H29.6393L22.5158 8.62759C21.868 7.86607 20.8324 7.61367 19.7946 7.86607L17.3335 8.62759C16.9457 8.75487 16.8157 9.26183 17.0735 9.51639L24.8448 16.7455H13.0567C12.6689 16.7455 12.4089 17 12.4089 17.3797V18.6482C12.4089 19.537 13.1867 20.2964 14.0923 20.2964H15.9057V26.3842C15.9057 30.9491 18.3669 33.6133 22.5114 33.6133C23.807 33.6133 24.8426 33.486 26.1382 32.9791V37.0369C26.1382 38.1781 27.046 39.0669 28.2115 39.0669H30.0249C30.4127 39.0669 30.8027 38.6872 30.8027 38.3054V20.1691H33.7817C34.1695 20.1691 34.4295 19.9145 34.4295 19.5348V18.2664H34.4317ZM26.1404 29.1736C25.3626 29.5533 24.327 29.6806 23.5492 29.6806C21.4758 29.6806 20.4402 28.6666 20.4402 26.3821V20.2942H26.1404V29.1736Z" fill="white"/>
</svg>
